<?xml version="1.0" encoding="utf-8"?>
<!-- Generator: Adobe Illustrator 22.0.1, SVG Export Plug-In . SVG Version: 6.00 Build 0)  -->
<svg version="1.1" id="Spanish" xmlns="http://www.w3.org/2000/svg" xmlns:xlink="http://www.w3.org/1999/xlink" x="0px" y="0px"
	 viewBox="0 0 200 53" style="enable-background:new 0 0 200 53;" xml:space="preserve">
<style type="text/css">
	.st0{fill:#FFFFFF;}
</style>
<g>
	<g>
		<g>
			<path class="st0" d="M66.1,18.5c-3.4,0-6.1,2.7-6.1,6.1s2.7,6.1,6.1,6.1c3.4,0,6.1-2.7,6.1-6.1S69.5,18.5,66.1,18.5z M70.9,21.1
				c-0.3,0.2-0.6,0.4-1,0.6c-0.2-0.4-0.4-0.8-0.7-1.1c0.2-0.2,0.5-0.3,0.7-0.5C70.3,20.4,70.6,20.7,70.9,21.1z M68.3,19.1
				c0.5,0.2,0.9,0.5,1.4,0.8c-0.2,0.2-0.4,0.3-0.7,0.5c-0.3-0.3-0.6-0.7-1-0.9C68.1,19.4,68.2,19.2,68.3,19.1z M68.8,20.5
				c-0.3,0.2-0.7,0.3-1,0.4c-0.1-0.3-0.3-0.7-0.5-1c0.2-0.1,0.4-0.2,0.6-0.3C68.2,19.9,68.5,20.2,68.8,20.5z M68.1,19
				c-0.1,0.1-0.2,0.2-0.3,0.3c-0.3-0.2-0.7-0.4-1-0.6C67.2,18.8,67.7,18.9,68.1,19z M67.6,19.5c-0.1,0.1-0.3,0.2-0.5,0.3
				c-0.2-0.3-0.4-0.6-0.6-0.8C66.9,19.1,67.3,19.3,67.6,19.5z M66.3,19c0.2,0.3,0.4,0.6,0.6,0.9C66.7,20,66.5,20,66.3,20
				C66.3,19.9,66.3,19.2,66.3,19z M66.3,20.2c0.3,0,0.5-0.1,0.8-0.1c0.2,0.3,0.4,0.6,0.5,1c-0.4,0.1-0.8,0.2-1.3,0.2
				C66.3,21.1,66.3,20.3,66.3,20.2z M66,19c0,0.2,0,0.9,0,1c-0.2,0-0.4,0-0.6-0.1C65.6,19.5,65.8,19.2,66,19z M65.2,19.7
				c-0.2-0.1-0.3-0.2-0.5-0.3c0.3-0.2,0.7-0.4,1-0.6C65.5,19.2,65.3,19.5,65.2,19.7z M65.5,18.7c-0.4,0.2-0.7,0.3-1,0.6
				c-0.1-0.1-0.2-0.2-0.3-0.3C64.6,18.9,65.1,18.8,65.5,18.7z M69.7,29.2c-0.8-0.4-0.8-1.1-0.8-1.3c0-0.2,0.2-0.1,0.3-0.1
				c0.5,0,1.1-0.2,1.8-0.9c0.8-0.8,1-2.6-0.2-3.7c-1.3-1.2-2.7-1-3.5,0.1c-0.2,0.2-0.6,0.4-1,0.4c-0.6,0-0.2,0.4-0.2,0.5
				S66,24.4,66,24.3c-0.2-0.1-0.1,0.2-0.1,0.3c0,0.1-0.1,0.1-0.1,0.1c-0.2,0-0.2,0.2-0.2,0.3c0,0.1,0,0.2-0.1,0.2s-0.2,0.2-0.2,0.4
				c0,0.3,0.2,0.4,0.6,0.7c0.4,0.3,0.4,0.6,0.5,0.8c0,0.2,0,0.5,0.1,0.7c0.1,0.3,0.1,0.7-0.5,0.8c-0.7,0-1.9,0.6-2,0.6
				c-0.4,0.1-0.9,0.2-1.3,0.1c-0.2-0.1-0.4-0.3-0.6-0.5c-0.1-0.3,0.1-0.6,0.2-0.7c0.2,0.2,0.6,0.2,0.7,0.2c0.2,0,1.1-0.1,1.2-0.2
				c0.1,0,0.2,0,0.3,0c0.3,0.1,0.8,0.2,1-0.5s-0.3-0.5-0.3-0.5c-0.1,0-0.1,0-0.1,0c0.1-0.2,0-0.2-0.1-0.2c-0.2,0-0.4,0.2-0.5,0.3
				c-0.1,0.1-0.2,0.1-0.2,0.1c-0.2-0.1-1,0.1-1.2-0.3c0-0.1-0.2-1.7-0.3-2c0-0.1,0-0.2,0-0.3c0.2-0.3,0.7,0,1,0
				c0.3,0,0.4-0.1,0.5-0.3c0.1-0.1,0.2,0,0.2-0.1c0.1,0,0-0.1,0-0.2c0,0,0,0,0.1-0.1s0-0.2,0-0.2c0.1-0.1,0.3,0,0.2-0.4
				c-0.1-0.2,0-0.4,0.1-0.5c0.2-0.2,0.8-1.1-0.3-2c-1.1-0.9-2.1-0.8-2.8-0.1c-0.7,0.7-0.3,1.8-0.3,2.1c0.1,0.3-0.1,0.5-0.4,0.7
				c-0.2,0.1-0.6,0.4-0.9,0.7c0.1-2.3,1.5-4.4,3.7-5.3c0.1,0.1,0.2,0.2,0.3,0.3C64,19.5,63.4,20,63.4,20h0.1h0.1
				c0,0,0.5-0.4,0.7-0.6c0.2,0.1,0.4,0.2,0.6,0.3c-0.1,0.2-0.4,0.7-0.4,0.7s0.1,0,0.1,0.1c0.1,0,0.1,0.1,0.1,0.1s0.3-0.5,0.4-0.7
				c0.2,0.1,0.5,0.1,0.8,0.1c0,0.1,0,0.9,0,1c-0.1,0-0.5,0-0.7,0h-0.1l0.1,0.1c0,0.1,0.1,0.1,0.1,0.2l0,0l0,0c0.1,0,0.4,0,0.6,0
				c0,0.1,0,1.8,0,1.8h0.3c0,0,0-0.3,0-0.4c0.4,0,0.7,0,1.1-0.1l0,0l0.3-0.3h-0.2c-0.4,0.1-0.7,0.1-1.1,0.1c0,0-0.1,0-0.2,0
				c0-0.1,0-1.1,0-1.2c0.5,0,0.9-0.1,1.4-0.2c0.1,0.3,0.4,1,0.4,1l0.2-0.1c0,0-0.2-0.7-0.4-1c0.4-0.1,0.7-0.3,1.1-0.5
				c0.3,0.3,0.5,0.7,0.7,1.1c-0.2,0.1-0.5,0.2-0.5,0.2c0.3,0,0.5,0.1,0.5,0.1s0.1,0,0.2-0.1c0,0.1,0.1,0.2,0.1,0.2l0.3,0.1v-0.1
				L70,21.6c0.3-0.2,0.7-0.4,1-0.6c0.6,0.9,0.9,2,0.9,3.2C72,26.4,71.1,28.1,69.7,29.2z"/>
			<g>
				<path class="st0" d="M59.5,20.1L59.5,20.1c-0.5,0.4-1.3,1.2-1.1,2.1v0.1v0.2l0.1-0.1c0.5-0.5,0.9-1.2,1-2.1V20.1L59.5,20.1z"/>
				<path class="st0" d="M57.9,21.7v0.1c-0.1,0.2-0.2,0.5-0.2,0.9c-0.1,0.6-0.1,1.5,0.5,2.1l0.1,0.1l0.1,0.1l0.1-0.4
					c0.1-0.7,0-2.1-0.3-2.8l-0.1-0.2L57.9,21.7z"/>
				<path class="st0" d="M57.3,24.1v0.1c0,0.6,0,2.1,1.2,2.9l0.1,0.1V27C58.6,26.4,57.9,24.7,57.3,24.1V24V24.1z"/>
				<path class="st0" d="M57.5,26.8v0.1c0.2,0.9,1,2.3,2.3,2.7l0.2,0.1l-0.1-0.2c-0.2-0.7-1.5-2.2-2.3-2.7l-0.2-0.1L57.5,26.8z"/>
				<path class="st0" d="M60,21.4l-0.1,0.1c-1,0.6-1.4,1.3-1.4,2.1v0.2l0.1-0.1c0.5-0.4,1.2-1.5,1.3-2.1L60,21.4L60,21.4z"/>
				<path class="st0" d="M59.5,23.3L59.5,23.3c-0.3,0.3-1.1,1.1-1,2.2c0,0.2,0,0.3,0.1,0.5l0.1,0.2l0.1-0.1c0.4-0.5,0.9-1.9,0.8-2.6
					L59.5,23.3L59.5,23.3z"/>
				<path class="st0" d="M59.5,25.1L59.5,25.1c-0.5,0.7-0.7,1.3-0.6,1.8c0,0.4,0.1,0.8,0.4,1.2l0.1,0.1l0.1-0.1
					c0.2-0.3,0.3-1.4,0.3-2.2c0-0.3,0-0.5-0.1-0.7L59.5,25.1L59.5,25.1z"/>
				<path class="st0" d="M60,27L60,27c-0.1,0.5-0.2,0.8-0.2,1.2c0,0.8,0.4,1.4,1.1,1.9l0.1,0.1V30v-0.1c0-0.7-0.5-2.3-0.9-2.8L60,27
					L60,27z"/>
				<path class="st0" d="M58.6,29.6L58.6,29.6c0.6,0.9,1.4,2,3.1,1.8h0.1l-0.1-0.1C61.4,30.8,59.4,29.7,58.6,29.6L58.6,29.6
					L58.6,29.6z M58.7,29.5L58.7,29.5L58.7,29.5z"/>
				<path class="st0" d="M61,31.7L61,31.7l-0.3,0.1l0.2,0.1c1,0.4,2.3,0.5,3.1,0.3c0.3-0.1,0.5-0.3,0.7-0.5c1.3,0.1,2.6,1.2,3.3,2.1
					l0,0h0.1c0.1,0,0.2-0.1,0.3-0.2l0.1-0.1v-0.1c-0.8-1-1.9-1.6-2-1.6C65.4,31.5,63.5,31.1,61,31.7z"/>
				<path class="st0" d="M61.1,29L61.1,29c0.2,1.1,0.6,2.3,2.2,2.2h0.1v-0.1c-0.1-0.4-1.6-1.7-2.1-2.1H61.1L61.1,29z"/>
			</g>
			<g>
				<path class="st0" d="M72.7,20v0.3c0.2,0.9,0.5,1.7,1,2.1l0.1,0.1v-0.2v-0.1C73.9,21.3,73.1,20.5,72.7,20L72.7,20L72.7,20z"/>
				<path class="st0" d="M74.4,21.5l-0.1,0.2c-0.3,0.6-0.4,2.1-0.3,2.8l0.1,0.4l0.1-0.1l0.1-0.1c0.5-0.6,0.5-1.5,0.5-2.1
					c-0.1-0.4-0.2-0.7-0.2-0.9v-0.1L74.4,21.5z"/>
				<path class="st0" d="M75,24l-0.1,0.2c-0.5,0.6-1.2,2.3-1.2,2.9v0.2l0.1-0.1c1.2-0.8,1.3-2.3,1.2-2.9v-0.1V24z"/>
				<path class="st0" d="M74.9,26.7l-0.2,0.1c-0.8,0.5-2,2-2.3,2.7l-0.1,0.2l0.2-0.1c1.3-0.4,2.1-1.8,2.3-2.7v-0.1L74.9,26.7z"/>
				<path class="st0" d="M72.2,21.3l0.1,0.2c0.2,0.6,0.8,1.7,1.3,2.2l0.1,0.1v-0.2c0.1-0.9-0.4-1.6-1.3-2.2L72.2,21.3L72.2,21.3z"/>
				<path class="st0" d="M72.8,23.2v0.2c0,0.6,0.5,2,0.8,2.6l0.1,0.1l0.1-0.2c0.1-0.2,0.1-0.3,0.1-0.5c0.1-1-0.7-1.9-1-2.1
					L72.8,23.2L72.8,23.2z"/>
				<path class="st0" d="M72.7,25l-0.1,0.2c0,0.2-0.1,0.4-0.1,0.7c0,0.8,0.1,1.9,0.3,2.2l0.1,0.1l0.1-0.1c0.2-0.4,0.4-0.8,0.4-1.2
					c0-0.6-0.2-1.2-0.6-1.8L72.7,25L72.7,25z"/>
				<path class="st0" d="M72.3,26.9L72.2,27c-0.4,0.5-0.9,2.1-0.9,2.8v0.1v0.2l0.1-0.1c0.7-0.4,1-1.1,1.1-1.9c0-0.4,0-0.7-0.2-1.1
					V26.9L72.3,26.9z"/>
				<path class="st0" d="M73.7,29.5h-0.2c-0.7,0.1-2.7,1.2-3,1.7l-0.1,0.1h0.1c1.6,0.3,2.5-0.8,3-1.7L73.7,29.5L73.7,29.5z
					 M73.6,29.5L73.6,29.5L73.6,29.5z"/>
				<path class="st0" d="M65.9,32c-0.1,0-1.2,0.6-2,1.6v0.1l0.1,0.1c0.1,0.1,0.2,0.2,0.3,0.2h0.1l0,0c0.7-0.9,2-2,3.3-2.1
					c0.2,0.2,0.4,0.4,0.7,0.5c0.7,0.3,2,0.1,3.1-0.3l0.2-0.1l-0.3-0.1l0,0C68.8,31.1,67,31.5,65.9,32z"/>
				<path class="st0" d="M71.2,28.9L71.1,29c-0.5,0.4-2,1.6-2.1,2.1v0.1h0.1c1.6,0.1,2-1.1,2.2-2.1L71.2,28.9L71.2,28.9z"/>
			</g>
		</g>
		<g>
			<path class="st0" d="M29.2,18.9h2.1v1.9h-2.1V18.9z M29.4,32.2V23h1.7v9.2H29.4z"/>
			<path class="st0" d="M16.2,22.9h1.7v9.2h-1.7v-1.4l0,0c-0.7,1.2-1.9,1.6-3.2,1.6c-1.9,0-3-1.5-3-3.3v-6.2h1.7v5.5
				c0,1.6,0.4,2.8,2,2.8c0.7,0,1.7-0.4,2.1-1.3c0.3-0.9,0.3-1.9,0.3-2.2v-4.7H16.2z"/>
			<path class="st0" d="M21.4,24.3L21.4,24.3c0.6-1.2,1.9-1.6,2.8-1.6c0.6,0,3.5,0.2,3.5,3.1v6.4H26v-5.8c0-1.5-0.6-2.4-2.1-2.4
				c0,0-1-0.1-1.7,0.7c-0.3,0.3-0.7,0.7-0.7,2.5v5h-1.7V23h1.7L21.4,24.3L21.4,24.3z"/>
			<path class="st0" d="M38.4,25.9c-0.1-1.2-0.6-2-1.9-2c-1.7,0-2.3,1.4-2.3,3.6s0.6,3.6,2.3,3.6c1.1,0,1.9-0.7,2-2.1h1.7
				c-0.1,2.1-1.7,3.3-3.7,3.3c-2.9,0-4.1-2.1-4.1-4.8s1.4-4.9,4.3-4.9c1.9,0,3.4,1.2,3.5,3.2L38.4,25.9L38.4,25.9z"/>
			<path class="st0" d="M42.8,27.9c-0.1,1.6,0.5,3.3,2.3,3.3c1.4,0,2-0.5,2.2-1.9h1.8c-0.3,2.1-1.9,3.1-4.1,3.1
				c-2.9,0-4.1-2.1-4.1-4.8s1.4-4.9,4.3-4.9c2.7,0.1,4,1.8,4,4.3v0.9H42.8z M47.5,26.7c0-1.5-0.7-2.7-2.3-2.7
				c-1.4,0-2.3,1.2-2.3,2.7H47.5z"/>
			<path class="st0" d="M51.3,32.1v-8h-1.6V23h1.6v-2c0.1-2,1.6-2.5,2.9-2.5c0.4,0,0.8,0.1,1.2,0.2v1.4c-0.3,0-0.6-0.1-0.9-0.1
				c-1,0-1.6,0.3-1.5,1.3V23h2.1v1.2H53v8h-1.7V32.1z"/>
		</g>
	</g>
	<g>
		<path class="st0" d="M86.7,35.6h-1.1V25c0-0.7-0.1-1.4-0.1-2.1h1.1l0.1,1.4l0,0c0.6-1.1,1.9-1.7,3.1-1.7c2.7,0,3.8,2.4,3.8,4.8
			c0,2.3-1,4.9-3.7,4.9c-1.3,0-2.4-0.6-3.2-1.7l0,0C86.7,30.6,86.7,35.6,86.7,35.6z M89.8,31.4c2.1,0,2.6-2.3,2.6-4
			c0-1.8-0.7-3.7-2.8-3.7c-2.1,0-3,1.8-3,3.6C86.7,29.4,87.4,31.4,89.8,31.4z"/>
		<path class="st0" d="M100.6,25.7c-0.1-1.5-0.9-2-2.2-2c-1.1,0-2.1,0.3-2.2,1.6H95c0.3-1.9,1.7-2.6,3.4-2.6c2,0,3.3,0.9,3.2,3V30
			c0,0.7,0.1,1.4,0.1,2.1h-1.1v-1.4l0,0l-0.1,0.1c-0.4,0.8-1.6,1.5-2.9,1.5c-1.7,0-3-1-3-2.8c0-1.2,0.7-2.2,1.8-2.6
			c1.2-0.5,2.8-0.3,4.1-0.4L100.6,25.7L100.6,25.7z M97.9,31.4c2.4,0,2.8-2,2.7-3.9c-1.6,0.1-4.8-0.2-4.8,2.1
			C95.8,30.8,96.7,31.4,97.9,31.4z"/>
		<path class="st0" d="M104.9,32.1h-1.1V25c0-0.7-0.1-1.4-0.1-2.1h1.1l0.1,1.4l0,0c0.3-0.9,1.1-1.6,2.1-1.6c0.4,0,0.7,0,1.1,0v1.1
			c-0.2,0-0.5-0.1-0.7-0.1c-1.6,0-2.5,1.2-2.5,2.9V32.1z"/>
		<path class="st0" d="M114.4,25.7c-0.1-1.5-0.9-2-2.2-2c-1.1,0-2.1,0.3-2.2,1.6h-1.2c0.3-1.9,1.7-2.6,3.4-2.6c2,0,3.3,0.9,3.2,3V30
			c0,0.7,0.1,1.4,0.1,2.1h-1.1v-1.4l0,0l-0.1,0.1c-0.4,0.8-1.6,1.5-2.9,1.5c-1.7,0-3-1-3-2.8c0-1.2,0.7-2.2,1.8-2.6
			c1.2-0.5,2.8-0.3,4.1-0.4L114.4,25.7L114.4,25.7z M111.6,31.4c2.4,0,2.8-2,2.7-3.9c-1.6,0.1-4.8-0.2-4.8,2.1
			C109.6,30.8,110.5,31.4,111.6,31.4z"/>
		<path class="st0" d="M127,25.8c-0.1-1.4-1-2.1-2.5-2.1c-1.7,0-2.7,1.8-2.7,3.8c0,2.1,1,3.9,2.7,3.9c1.4,0,2.4-0.9,2.5-2.1h1.2
			c-0.3,2.1-1.5,3.1-3.6,3.1c-2.7,0-4-2.4-4-4.9s1.4-4.9,4.1-4.9c1.9,0,3.4,1.1,3.5,3.1H127V25.8z"/>
		<path class="st0" d="M135.1,25.7c-0.1-1.5-0.9-2-2.2-2c-1.1,0-2.1,0.3-2.2,1.6h-1.2c0.3-1.9,1.7-2.6,3.4-2.6c2,0,3.3,0.9,3.2,3V30
			c0,0.7,0.1,1.4,0.1,2.1h-1.1v-1.4l0,0l-0.1,0.1c-0.4,0.8-1.6,1.5-2.9,1.5c-1.7,0-3-1-3-2.8c0-1.2,0.7-2.2,1.8-2.6
			c1.2-0.5,2.8-0.3,4.1-0.4L135.1,25.7L135.1,25.7z M132.4,31.4c2.4,0,2.8-2,2.7-3.9c-1.6,0.1-4.8-0.2-4.8,2.1
			C130.3,30.8,131.3,31.4,132.4,31.4z"/>
		<path class="st0" d="M144.7,30.8L144.7,30.8c-0.8,1-1.9,1.6-3.2,1.6c-2.7,0-3.8-2.6-3.8-4.9c0-2.4,1-4.8,3.8-4.8
			c1.2,0,2.5,0.6,3.1,1.7l0,0V19h1.1v11.1c0,0.7,0.1,1.4,0.1,2.1h-1.1L144.7,30.8z M141.7,23.7c-2.1,0-2.8,1.9-2.8,3.7
			c0,1.7,0.5,4,2.6,4c2.4,0,3.1-2,3.1-4.1C144.7,25.5,143.9,23.7,141.7,23.7z"/>
		<path class="st0" d="M153.3,25.7c-0.1-1.5-0.9-2-2.2-2c-1.1,0-2.1,0.3-2.2,1.6h-1.2c0.3-1.9,1.7-2.6,3.4-2.6c2,0,3.3,0.9,3.2,3V30
			c0,0.7,0.1,1.4,0.1,2.1h-1.1v-1.4l0,0l-0.1,0.1c-0.4,0.8-1.6,1.5-2.9,1.5c-1.7,0-3-1-3-2.8c0-1.2,0.7-2.2,1.8-2.6
			c1.2-0.5,2.8-0.3,4.1-0.4L153.3,25.7L153.3,25.7z M150.5,31.4c2.4,0,2.8-2,2.7-3.9c-1.6,0.1-4.8-0.2-4.8,2.1
			C148.5,30.8,149.4,31.4,150.5,31.4z"/>
		<path class="st0" d="M161.2,32.1h-1.1V25c0-0.7-0.1-1.4-0.1-2.1h1.1l0.1,1.4l0,0c0.6-1.1,1.7-1.7,2.9-1.7c3,0,3.2,2.6,3.2,3.7V32
			h-1.1v-5.9c0-1.6-0.9-2.5-2.4-2.5c-1.8,0-2.6,1.5-2.6,3.2L161.2,32.1L161.2,32.1z"/>
		<path class="st0" d="M170.6,20.3h-1.3v-1.4h1.3V20.3z M170.5,23v9.2h-1.1V23H170.5z"/>
		<path class="st0" d="M173.8,32.1h-1.1V25c0-0.7,0-1.4-0.1-2.1h1.1l0.1,1.4l0,0c0.6-1.1,1.7-1.7,2.9-1.7c3,0,3.2,2.6,3.2,3.7V32
			h-1.1v-5.9c0-1.6-0.9-2.5-2.4-2.5c-1.8,0-2.6,1.5-2.6,3.2L173.8,32.1L173.8,32.1z M178.8,19.4c-0.2,0.8-0.7,1.6-1.7,1.6
			c-0.3,0-0.5-0.1-0.8-0.2s-0.6-0.2-1-0.2s-0.8,0.2-0.9,0.5h-0.7c0.2-1,0.9-1.6,2-1.5c0.2,0,0.5,0.1,0.7,0.2
			c0.3,0.1,0.6,0.2,0.7,0.2c0.4,0,0.8-0.2,0.9-0.6H178.8z"/>
		<path class="st0" d="M190,27.5c0,2.4-1.4,4.9-4.3,4.9c-2.9,0-4.3-2.4-4.3-4.9c0-2.4,1.4-4.9,4.3-4.9C188.6,22.7,190,25.1,190,27.5
			z M185.7,23.7c-2.2,0-3.1,2.2-3.1,3.8c0,1.7,0.9,3.8,3.1,3.8c2.2,0,3.1-2.2,3.1-3.8C188.8,25.8,187.9,23.7,185.7,23.7z"/>
	</g>
	<rect x="79.9" y="15.2" class="st0" width="0.4" height="22.7"/>
</g>
</svg>
